<?xml version="1.0" standalone="no"?>
<!DOCTYPE svg PUBLIC "-//W3C//DTD SVG 20010904//EN"
 "http://www.w3.org/TR/2001/REC-SVG-20010904/DTD/svg10.dtd">
<svg version="1.0" xmlns="http://www.w3.org/2000/svg"
 width="724.000000pt" height="724.000000pt" viewBox="0 0 724.000000 724.000000"
 preserveAspectRatio="xMidYMid meet">
<metadata>
Created by potrace 1.11, written by Peter Selinger 2001-2013
</metadata>
<g transform="translate(0.000000,724.000000) scale(0.100000,-0.100000)"
fill="#000000" stroke="none">
<path d="M3297 6383 c-3 -2 -38 -6 -78 -9 -122 -8 -172 -12 -204 -17 -16 -3
-57 -8 -90 -12 -33 -3 -67 -8 -75 -10 -8 -2 -37 -6 -63 -10 -26 -3 -71 -10
-100 -16 -29 -5 -65 -12 -82 -15 -16 -2 -68 -14 -115 -24 -47 -11 -98 -23
-115 -26 -135 -26 -514 -152 -690 -229 -49 -21 -70 -28 -77 -27 -5 1 -8 -2 -8
-8 0 -5 -5 -10 -11 -10 -15 0 -230 -108 -324 -163 -182 -105 -367 -237 -514
-365 -56 -49 -224 -212 -218 -212 2 0 -13 -18 -34 -40 -78 -82 -201 -256 -260
-370 -19 -36 -36 -67 -39 -70 -11 -10 -60 -119 -60 -132 0 -8 -4 -18 -9 -24
-17 -18 -77 -217 -86 -284 -2 -14 -4 -25 -5 -25 -1 0 -3 -11 -6 -25 -2 -14 -7
-38 -10 -55 -3 -16 -7 -109 -9 -205 -4 -240 26 -414 109 -629 42 -109 117
-261 128 -261 4 0 8 -5 8 -12 0 -9 61 -111 92 -153 19 -25 112 -144 139 -177
58 -71 234 -242 324 -313 27 -22 56 -46 65 -53 45 -36 178 -133 200 -144 14
-7 27 -16 30 -19 3 -3 48 -32 100 -63 187 -113 532 -272 745 -344 109 -37 287
-92 312 -96 13 -3 39 -10 56 -15 18 -6 43 -12 57 -15 40 -8 70 -15 88 -20 9
-3 33 -8 52 -11 19 -3 51 -10 70 -15 19 -5 51 -11 70 -14 19 -2 49 -7 65 -10
104 -20 183 -31 238 -35 16 -1 17 -26 17 -386 l0 -385 615 0 615 0 0 379 c0
209 3 382 8 384 4 3 37 8 73 11 36 4 76 9 90 11 44 7 213 36 244 41 17 3 48
10 70 16 22 5 51 12 65 15 14 2 43 9 65 14 22 6 47 11 55 13 9 1 21 5 28 10 6
4 12 5 12 2 0 -2 15 0 33 5 17 6 39 12 47 14 8 2 27 8 42 14 15 6 29 7 32 3 5
-9 88 -165 134 -252 43 -83 73 -138 149 -280 34 -63 61 -118 60 -121 -1 -4 5
-15 14 -25 8 -11 32 -50 52 -89 19 -38 47 -90 60 -115 l24 -45 698 -3 697 -2
-15 24 c-38 57 -107 178 -107 187 0 5 -4 9 -10 9 -5 0 -10 6 -10 14 0 8 -6 21
-14 28 -7 8 -21 30 -31 48 -10 19 -28 51 -40 70 -12 19 -22 38 -21 41 1 4 -6
15 -15 25 -9 11 -98 159 -199 329 -100 171 -192 326 -204 345 -23 39 -26 44
-75 127 -19 32 -45 76 -60 98 -36 57 -36 70 2 92 40 24 275 202 309 235 13 12
53 50 89 84 286 271 485 578 585 901 51 168 73 328 69 513 -2 91 -6 179 -9
195 -2 17 -7 44 -9 60 -20 123 -78 305 -144 445 -40 86 -123 233 -135 238 -4
2 -8 8 -8 14 0 13 -105 152 -175 233 -92 106 -222 232 -323 313 -22 19 -51 42
-63 53 -12 10 -25 19 -28 19 -3 0 -17 10 -31 23 -14 12 -46 36 -72 52 -27 17
-48 33 -48 38 0 4 -7 7 -15 7 -8 0 -15 5 -15 10 0 6 -4 10 -8 10 -5 0 -62 32
-128 72 -145 87 -308 169 -474 238 -69 28 -134 55 -145 60 -21 9 -57 22 -65
25 -3 0 -63 20 -135 44 -71 24 -137 45 -145 46 -8 2 -76 20 -150 39 -74 19
-148 37 -165 40 -16 2 -61 11 -100 19 -66 14 -92 19 -182 33 -21 3 -67 10
-103 15 -36 6 -87 12 -115 14 -27 3 -70 7 -95 10 -25 3 -74 8 -110 11 -82 7
-717 13 -723 7z m1223 -947 c69 -3 140 -8 158 -10 18 -3 67 -8 110 -11 42 -4
86 -9 97 -11 11 -2 40 -6 65 -9 25 -4 68 -10 95 -15 28 -6 68 -12 90 -16 22
-3 48 -7 57 -10 9 -3 27 -7 40 -9 13 -3 47 -10 75 -16 29 -5 54 -10 55 -9 2 1
17 -4 33 -10 17 -7 62 -21 100 -31 39 -11 77 -22 85 -24 20 -6 101 -34 120
-42 8 -3 17 -7 20 -8 76 -26 303 -134 312 -149 4 -6 8 -8 8 -4 0 6 121 -69
147 -91 7 -6 17 -11 23 -11 5 0 10 -4 10 -8 0 -4 13 -15 29 -25 30 -18 207
-188 253 -243 108 -131 233 -387 254 -524 3 -19 8 -38 10 -41 2 -4 6 -25 9
-46 3 -22 8 -66 13 -99 8 -59 7 -288 -1 -354 -5 -42 -18 -117 -24 -145 -4 -20
-11 -48 -12 -52 -1 -2 -1 -5 -1 -8 -2 -36 -97 -260 -143 -337 -108 -182 -340
-405 -535 -514 -20 -11 -61 -34 -91 -51 l-55 -30 -45 27 c-42 24 -199 92 -246
106 -5 2 -37 12 -70 22 -64 21 -64 21 25 36 58 10 162 37 195 50 19 8 35 13
35 11 0 -5 98 38 173 76 145 73 312 214 385 325 66 101 80 124 76 124 -2 0 8
24 22 53 61 120 98 308 97 497 -1 129 -8 201 -29 290 -3 14 -7 32 -9 40 -11
53 -96 244 -116 260 -3 3 -8 10 -10 17 -14 42 -154 184 -241 245 -145 103
-346 186 -517 214 -18 3 -43 9 -55 12 -11 4 -605 8 -1318 9 l-1298 4 0 -1291
0 -1290 -22 4 c-27 5 -239 78 -283 96 -16 8 -32 14 -35 15 -55 19 -254 114
-355 170 -53 29 -217 135 -225 145 -3 3 -21 17 -40 30 -56 40 -72 53 -192 166
-220 208 -366 484 -395 744 -11 106 -7 222 11 305 11 52 38 148 48 173 86 208
181 346 355 514 39 39 81 77 93 85 11 8 32 25 46 38 35 33 200 145 212 145 6
0 12 4 14 9 5 14 221 128 348 184 78 35 237 93 333 123 45 14 89 28 97 31 8 3
20 7 25 8 6 2 49 12 95 23 47 12 96 24 110 26 14 3 59 12 100 21 94 19 113 23
175 31 28 3 57 8 66 9 9 2 40 6 70 10 30 3 70 8 89 10 19 3 84 7 145 10 60 3
110 7 112 8 4 5 415 -1 543 -7z m618 -1463 c74 -38 103 -67 139 -142 25 -51
28 -66 27 -161 0 -87 -4 -114 -23 -155 -44 -98 -147 -170 -271 -190 -48 -7
-108 -7 -121 1 -4 2 -10 0 -13 -5 -3 -5 -21 -5 -41 -1 -19 4 -50 5 -67 1 -18
-4 -44 -6 -58 -4 -53 6 -158 5 -168 -1 -6 -3 -13 -2 -17 4 -4 6 -10 8 -15 5
-7 -4 -78 -6 -205 -3 -16 0 -34 -1 -40 -2 -43 -10 -46 -4 -46 108 1 180 2 226
7 233 2 4 1 10 -3 12 -5 3 -7 80 -5 172 l3 166 427 -3 427 -3 63 -32z m-487
-1588 c44 -30 93 -76 124 -117 65 -85 66 -88 48 -89 -10 0 -31 -2 -48 -5 -16
-2 -64 -6 -105 -8 -41 -3 -75 -6 -75 -6 0 -3 -140 -9 -255 -12 l-125 -3 -3
138 -3 138 196 -1 195 -2 51 -33z"/>
</g>
</svg>
